# Blender v3.4.1 OBJ File: 'chave_cor.blend'
# www.blender.org
mtllib chave_cor.mtl
o Cube.001
v 0.000000 0.191233 -0.377384
v 0.000000 0.191233 0.296615
v -0.998508 0.191233 0.279824
v 0.000000 0.191233 -1.009649
v -0.998508 0.191233 -0.360593
v 0.000000 0.191233 0.928880
v 0.998508 0.191233 0.279824
v 0.998508 0.191233 -0.360593
v -0.375374 0.191233 -1.009649
v -0.375374 0.191233 0.928880
v 0.375374 0.191233 -1.009649
v 0.375374 0.191233 0.928880
vt 0.750000 0.531250
vt 0.869985 0.532028
vt 0.869985 0.561722
vt 0.750000 0.562500
vt 0.750000 0.501935
vt 0.862284 0.501935
vt 0.862284 0.591815
vt 0.750000 0.591815
vt 0.869985 0.561721
vt 0.869985 0.532028
vt 0.862284 0.501935
vt 0.862284 0.591815
vn 0.0000 1.0000 0.0000
usemtl Material
s off
f 1/1/1 5/2/1 3/3/1 2/4/1
f 4/5/1 9/6/1 5/2/1 1/1/1
f 2/4/1 3/3/1 10/7/1 6/8/1
f 1/1/1 2/4/1 7/9/1 8/10/1
f 4/5/1 1/1/1 8/10/1 11/11/1
f 2/4/1 6/8/1 12/12/1 7/9/1
