# Blender v3.4.1 OBJ File: 'chave.blend'
# www.blender.org
mtllib chave.mtl
o Cube
v -0.375374 0.324013 -2.864202
v -0.442147 -0.278072 -3.031899
v -0.442147 0.324013 0.313089
v -0.442147 -0.278072 0.313089
v -0.442147 -0.278072 -0.170074
v 0.000000 -0.278072 -3.031899
v -0.442147 0.000000 0.313089
v -0.442147 0.000000 -3.031899
v 0.000000 0.324013 0.313089
v 0.000000 -0.278072 0.313089
v -0.442147 0.324013 -0.170074
v 0.000000 0.324013 -2.864202
v 0.000000 0.000000 -3.031899
v 0.000000 -0.278072 -0.170074
v -0.442147 0.000000 -0.170074
v -0.442147 0.000000 1.844445
v 0.000000 0.324013 -0.170074
v -0.998508 0.324013 -1.574728
v -1.169850 -0.278072 -1.515950
v 0.000000 -0.278072 -1.515950
v -1.169850 0.000000 -1.515950
v -0.442147 0.324013 1.096353
v -0.998508 0.324013 -2.215146
v -1.169850 0.000000 -2.273925
v -1.169850 -0.278072 -2.273925
v 0.000000 -0.278072 -2.273925
v -0.442147 0.000000 1.096353
v -0.442147 -0.278072 -0.757975
v 0.000000 -0.278072 -0.757975
v 0.000000 0.324013 -0.925673
v -0.375374 0.324013 -0.925673
v -0.442147 0.000000 -0.757975
v 0.375374 0.324013 -2.864202
v 0.442147 -0.278072 -3.031899
v 0.442147 0.324013 0.313089
v 0.442147 -0.278072 0.313089
v 0.442147 -0.278072 -0.170074
v 0.442147 0.000000 0.313089
v 0.442147 0.000000 -3.031899
v 0.442147 0.324013 -0.170074
v 0.442147 0.000000 -0.170074
v 0.998508 0.324013 -1.574728
v 1.169850 -0.278072 -1.515950
v 1.169850 0.000000 -1.515950
v 0.998508 0.324013 -2.215146
v 1.169850 0.000000 -2.273925
v 1.169850 -0.278072 -2.273925
v 0.442147 -0.278072 -0.757975
v 0.375374 0.324013 -0.925673
v 0.442147 0.000000 -0.757975
v -1.169850 0.324013 -2.273925
v -0.442147 0.324013 -3.031899
v 0.000000 0.324013 -3.031899
v -0.442147 0.324013 -0.757975
v -1.169850 0.324013 -1.515950
v 0.000000 0.324013 -0.757975
v 1.169850 0.324013 -2.273925
v 0.442147 0.324013 -3.031899
v 0.442147 0.324013 -0.757975
v 1.169850 0.324013 -1.515950
v 0.000000 0.191233 -2.231937
v 0.000000 0.191233 -1.557938
v -0.998508 0.191233 -1.574728
v 0.000000 0.191233 -2.864202
v -0.998508 0.191233 -2.215146
v 0.000000 0.191233 -0.925673
v 0.998508 0.191233 -1.574728
v 0.998508 0.191233 -2.215146
v -0.375374 0.191233 -2.864202
v -0.375374 0.191233 -0.925673
v 0.375374 0.191233 -2.864202
v 0.375374 0.191233 -0.925673
v 0.000000 0.324013 1.096353
v -0.442147 -0.278072 1.096353
v 0.000000 -0.278072 1.096353
v -0.442147 0.000000 2.507106
v 0.442147 0.000000 1.096353
v 0.442147 0.324013 1.096353
v 0.442147 -0.278072 1.096353
v -0.442147 0.324013 1.844445
v 0.000000 0.324013 1.844445
v -0.442147 -0.278072 1.844445
v 0.000000 -0.278072 1.844445
v 0.442147 0.000000 1.844445
v 0.442147 0.324013 1.844445
v 0.442147 -0.278072 1.844445
v -0.442147 0.324013 2.507106
v 0.000000 0.324013 2.507106
v -0.442147 -0.278072 2.507106
v 0.000000 -0.278072 2.507106
v 0.442147 0.000000 2.507106
v 0.442147 0.324013 2.507106
v 0.442147 -0.278072 2.507106
v -1.224733 0.006188 0.471330
v -1.224733 0.199282 0.471330
v -1.224733 -0.159528 0.471330
v -1.224733 0.199282 0.938113
v -1.224733 0.006188 0.938113
v -1.224733 -0.159528 0.938113
v -0.991173 0.004080 1.932712
v -0.991173 0.241776 1.932712
v -0.991173 -0.199914 1.932712
v -0.991173 0.241776 2.418840
v -0.991173 -0.199914 2.418840
v -0.991173 0.004080 2.418840
v -0.232404 0.007264 3.166715
v -0.232404 0.177574 3.166715
v 0.000000 0.177574 3.166715
v -0.232404 -0.138898 3.166715
v 0.000000 -0.138898 3.166715
v 0.000000 0.007264 3.166715
v 0.232404 0.007264 3.166715
v 0.232404 0.177574 3.166715
v 0.232404 -0.138898 3.166715
vt 0.750000 0.625000
vt 0.875000 0.625000
vt 0.875000 0.750000
vt 0.750000 0.750000
vt 0.875000 0.750000
vt 0.875000 0.750000
vt 0.875000 0.750000
vt 0.875000 0.750000
vt 0.500000 0.218750
vt 0.625000 0.218750
vt 0.625000 0.250000
vt 0.500000 0.250000
vt 0.375000 0.250000
vt 0.500000 0.375000
vt 0.375000 0.375000
vt 0.625000 0.375000
vt 0.125000 0.625000
vt 0.250000 0.625000
vt 0.250000 0.750000
vt 0.125000 0.750000
vt 0.125000 0.593750
vt 0.250000 0.593750
vt 0.375000 0.218750
vt 0.375000 0.000000
vt 0.500000 0.000000
vt 0.500000 0.125000
vt 0.375000 0.125000
vt 0.625000 0.000000
vt 0.625000 0.125000
vt 0.500000 0.000000
vt 0.625000 0.000000
vt 0.625000 0.000000
vt 0.500000 0.000000
vt 0.750000 0.593750
vt 0.875000 0.593750
vt 0.750000 0.501935
vt 0.862284 0.501935
vt 0.862284 0.501935
vt 0.750000 0.501935
vt 0.375000 0.156250
vt 0.500000 0.156250
vt 0.500000 0.187500
vt 0.375000 0.187500
vt 0.125000 0.531250
vt 0.250000 0.531250
vt 0.250000 0.562500
vt 0.125000 0.562500
vt 0.625000 0.156250
vt 0.625000 0.187500
vt 0.125000 0.500000
vt 0.250000 0.500000
vt 0.862284 0.591815
vt 0.750000 0.591815
vt 0.750000 0.591815
vt 0.862284 0.591815
vt 0.862284 0.591815
vt 0.869985 0.561721
vt 0.869985 0.561721
vt 0.862284 0.591815
vt 0.875000 0.750000
vt 0.875000 0.625000
vt 0.875000 0.750000
vt 0.750000 0.750000
vt 0.500000 0.218750
vt 0.500000 0.250000
vt 0.625000 0.250000
vt 0.625000 0.218750
vt 0.375000 0.250000
vt 0.125000 0.625000
vt 0.125000 0.750000
vt 0.125000 0.593750
vt 0.375000 0.218750
vt 0.375000 0.000000
vt 0.375000 0.125000
vt 0.500000 0.125000
vt 0.625000 0.125000
vt 0.875000 0.750000
vt 0.875000 0.593750
vt 0.869985 0.532028
vt 0.869985 0.532028
vt 0.375000 0.156250
vt 0.375000 0.187500
vt 0.500000 0.187500
vt 0.500000 0.156250
vt 0.125000 0.531250
vt 0.125000 0.562500
vt 0.625000 0.187500
vt 0.625000 0.156250
vt 0.125000 0.500000
vt 0.869985 0.561722
vt 0.869985 0.561722
vt 0.862284 0.501935
vt 0.862284 0.501935
vt 0.875000 0.500000
vt 0.875000 0.531250
vt 0.750000 0.500000
vt 0.875000 0.562500
vt 0.869985 0.532028
vt 0.875000 0.531250
vt 0.875000 0.500000
vt 0.875000 0.562500
vt 0.750000 0.531250
vt 0.750000 0.562500
vt 0.869985 0.532028
vt 0.375000 0.000000
vt 0.500000 0.000000
vt 0.375000 0.000000
vt 0.625000 0.000000
vt 0.500000 0.000000
vt 0.500000 0.000000
vt 0.625000 0.000000
vt 0.375000 0.000000
vt 0.375000 0.000000
vt 0.750000 0.750000
vt 0.875000 0.750000
vt 0.125000 0.750000
vt 0.250000 0.750000
vt 0.125000 0.750000
vt 0.375000 0.000000
vt 0.500000 0.000000
vt 0.750000 0.750000
vt 0.875000 0.750000
vt 0.250000 0.750000
vt 0.125000 0.750000
vt 0.125000 0.750000
vt 0.250000 0.750000
vt 0.125000 0.750000
vt 0.125000 0.750000
vt 0.625000 0.000000
vt 0.375000 0.000000
vt 0.500000 0.000000
vt 0.500000 0.000000
vt 0.375000 0.000000
vt 0.625000 1.000000
vt 0.500000 1.000000
vt 0.500000 1.000000
vt 0.625000 1.000000
vt 0.375000 1.000000
vt 0.375000 1.000000
vt 0.750000 0.750000
vt 0.875000 0.750000
vt 0.625000 0.000000
vt 0.500000 0.000000
vt 0.500000 1.000000
vt 0.375000 1.000000
vt 0.625000 0.000000
vt 0.625000 0.000000
vt 0.375000 0.000000
vt 0.500000 0.000000
vt 0.375000 0.000000
vt 0.375000 0.000000
vt 0.500000 0.000000
vt 0.625000 0.000000
vt 0.625000 0.000000
vt 0.625000 1.000000
vt 0.125000 0.750000
vt 0.125000 0.750000
vt 0.125000 0.750000
vt 0.125000 0.750000
vt 0.875000 0.750000
vt 0.875000 0.750000
vt 0.500000 0.875000
vt 0.625000 0.875000
vt 0.375000 0.875000
vt 0.500000 1.000000
vt 0.625000 1.000000
vt 0.375000 1.000000
vt 0.625000 0.000000
vt 0.250000 0.750000
vt 0.125000 0.750000
vt 0.875000 0.750000
vt 0.125000 0.750000
vn 0.0000 1.0000 0.0000
vn -0.1481 0.9890 0.0000
vn -0.7214 0.0000 -0.6926
vn 0.0000 0.0000 -1.0000
vn 0.0000 -1.0000 0.0000
vn -1.0000 0.0000 0.0000
vn 1.0000 0.0000 0.0000
vn 0.0000 0.0000 1.0000
vn -0.7214 0.0000 0.6926
vn 0.7214 0.0000 -0.6926
vn 0.7214 0.0000 0.6926
vn -0.1982 0.0000 -0.9802
vn 0.9530 0.0000 0.3030
vn -0.9530 0.0000 0.3030
vn 0.0000 0.9762 0.2167
vn -0.1982 0.0000 0.9802
vn -0.1587 0.0000 0.9873
vn -0.1587 0.0000 -0.9873
vn -0.1498 -0.9887 0.0000
vn -0.1409 -0.9900 0.0000
vn -0.1574 0.9875 0.0000
vn 0.0000 -0.9785 0.2064
usemtl Material
s off
f 17/1/1 11/2/1 3/3/1 9/4/1
f 87/5/2 80/6/2 101/7/2 103/8/2
f 24/9/3 51/10/3 52/11/3 8/12/3
f 2/13/4 8/12/4 13/14/4 6/15/4
f 8/12/4 52/11/4 53/16/4 13/14/4
f 5/17/5 14/18/5 10/19/5 4/20/5
f 28/21/5 29/22/5 14/18/5 5/17/5
f 25/23/3 24/9/3 8/12/3 2/13/3
f 4/24/6 7/25/6 15/26/6 5/27/6
f 7/25/6 3/28/6 11/29/6 15/26/6
f 38/30/7 35/31/7 78/32/7 77/33/7
f 56/34/1 54/35/1 11/2/1 17/1/1
f 12/36/8 1/37/8 69/38/8 64/39/8
f 28/40/9 32/41/9 21/42/9 19/43/9
f 25/44/5 26/45/5 20/46/5 19/47/5
f 32/41/9 54/48/9 55/49/9 21/42/9
f 2/50/5 6/51/5 26/45/5 25/44/5
f 31/52/4 30/53/4 66/54/4 70/55/4
f 19/43/6 21/42/6 24/9/6 25/23/6
f 21/42/6 55/49/6 51/10/6 24/9/6
f 15/26/6 11/29/6 54/48/6 32/41/6
f 5/27/6 15/26/6 32/41/6 28/40/6
f 49/56/3 42/57/3 67/58/3 72/59/3
f 19/47/5 20/46/5 29/22/5 28/21/5
f 17/1/1 9/4/1 35/60/1 40/61/1
f 9/4/1 3/3/1 22/62/1 73/63/1
f 46/64/10 39/65/10 58/66/10 57/67/10
f 34/68/4 6/15/4 13/14/4 39/65/4
f 39/65/4 13/14/4 53/16/4 58/66/4
f 37/69/5 36/70/5 10/19/5 14/18/5
f 48/71/5 37/69/5 14/18/5 29/22/5
f 47/72/10 34/68/10 39/65/10 46/64/10
f 36/73/7 37/74/7 41/75/7 38/30/7
f 38/30/7 41/75/7 40/76/7 35/31/7
f 35/60/1 9/4/1 73/63/1 78/77/1
f 56/34/1 17/1/1 40/61/1 59/78/1
f 1/37/11 23/79/11 65/80/11 69/38/11
f 48/81/11 43/82/11 44/83/11 50/84/11
f 47/85/5 43/86/5 20/46/5 26/45/5
f 50/84/11 44/83/11 60/87/11 59/88/11
f 34/89/5 47/85/5 26/45/5 6/51/5
f 23/79/7 18/90/7 63/91/7 65/80/7
f 43/82/7 47/72/7 46/64/7 44/83/7
f 44/83/7 46/64/7 57/67/7 60/87/7
f 41/75/7 50/84/7 59/88/7 40/76/7
f 37/74/7 48/81/7 50/84/7 41/75/7
f 33/92/8 12/36/8 64/39/8 71/93/8
f 43/86/5 48/71/5 29/22/5 20/46/5
f 23/79/1 1/37/1 52/94/1 51/95/1
f 1/37/1 12/36/1 53/96/1 52/94/1
f 31/52/1 18/90/1 55/97/1 54/35/1
f 18/90/1 23/79/1 51/95/1 55/97/1
f 30/53/1 31/52/1 54/35/1 56/34/1
f 33/92/1 45/98/1 57/99/1 58/100/1
f 12/36/1 33/92/1 58/100/1 53/96/1
f 42/57/1 49/56/1 59/78/1 60/101/1
f 45/98/1 42/57/1 60/101/1 57/99/1
f 49/56/1 30/53/1 56/34/1 59/78/1
f 61/102/1 65/80/1 63/91/1 62/103/1
f 64/39/1 69/38/1 65/80/1 61/102/1
f 62/103/1 63/91/1 70/55/1 66/54/1
f 61/102/1 62/103/1 67/58/1 68/104/1
f 64/39/1 61/102/1 68/104/1 71/93/1
f 62/103/1 66/54/1 72/59/1 67/58/1
f 42/57/6 45/98/6 68/104/6 67/58/6
f 45/98/9 33/92/9 71/93/9 68/104/9
f 18/90/10 31/52/10 70/55/10 63/91/10
f 30/53/4 49/56/4 72/59/4 66/54/4
f 79/105/7 77/33/7 84/106/7 86/107/7
f 22/108/6 27/109/6 16/110/6 80/111/6
f 27/109/6 74/112/6 82/113/6 16/110/6
f 78/77/1 73/63/1 81/114/1 85/115/1
f 10/19/5 36/70/5 79/116/5 75/117/5
f 4/20/5 10/19/5 75/117/5 74/118/5
f 36/73/7 38/30/7 77/33/7 79/105/7
f 7/25/12 4/24/12 96/119/12 94/120/12
f 85/115/1 81/114/1 88/121/1 92/122/1
f 83/123/5 86/124/5 93/125/5 90/126/5
f 81/114/1 80/6/1 87/5/1 88/121/1
f 82/127/5 83/123/5 90/126/5 89/128/5
f 77/33/7 78/32/7 85/129/7 84/106/7
f 74/118/5 75/117/5 83/123/5 82/127/5
f 73/63/1 22/62/1 80/6/1 81/114/1
f 75/117/5 79/116/5 86/124/5 83/123/5
f 93/130/13 91/131/13 112/132/13 114/133/13
f 87/134/14 76/135/14 106/136/14 107/137/14
f 76/135/14 89/138/14 109/139/14 106/136/14
f 92/122/15 88/121/15 108/140/15 113/141/15
f 27/109/16 22/108/16 97/142/16 98/143/16
f 89/138/17 76/135/17 105/144/17 104/145/17
f 86/107/7 84/106/7 91/131/7 93/130/7
f 84/106/7 85/129/7 92/146/7 91/131/7
f 95/147/6 94/120/6 98/143/6 97/142/6
f 94/120/6 96/119/6 99/148/6 98/143/6
f 100/149/6 102/150/6 104/151/6 105/152/6
f 101/153/6 100/149/6 105/152/6 103/154/6
f 16/110/18 82/113/18 102/150/18 100/149/18
f 76/135/17 87/134/17 103/155/17 105/144/17
f 4/20/19 74/118/19 99/156/19 96/157/19
f 82/127/20 89/128/20 104/158/20 102/159/20
f 74/112/16 27/109/16 98/143/16 99/148/16
f 3/28/12 7/25/12 94/120/12 95/147/12
f 80/111/18 16/110/18 100/149/18 101/153/18
f 22/62/21 3/3/21 95/160/21 97/161/21
f 111/162/8 108/163/8 107/137/8 106/136/8
f 110/164/8 111/162/8 106/136/8 109/139/8
f 111/162/8 112/165/8 113/166/8 108/163/8
f 110/164/8 114/167/8 112/165/8 111/162/8
f 91/131/13 92/146/13 113/168/13 112/132/13
f 89/128/22 90/126/22 110/169/22 109/170/22
f 88/121/15 87/5/15 107/171/15 108/140/15
f 90/126/22 93/125/22 114/172/22 110/169/22
